HIERARCHY
ROOT Beta:Hips
{
	OFFSET 0.00 0.00 0.00
	CHANNELS 6 Xposition Yposition Zposition Yrotation Xrotation Zrotation
	JOINT Beta:Spine
	{
		OFFSET	0.0000	9.2263	1.5771
		CHANNELS 3 Xrotation Yrotation Zrotation
		JOINT Beta:Spine1
		{
			OFFSET	0.0000	16.2540	-0.1656
			CHANNELS 3 Xrotation Yrotation Zrotation
			JOINT Beta:Spine2
			{
				OFFSET	0.0000	13.6396	-1.2923
				CHANNELS 3 Xrotation Yrotation Zrotation
				JOINT Beta:Neck
				{
					OFFSET	0.0000	13.8774	-4.3542
					CHANNELS 3 Xrotation Yrotation Zrotation
					JOINT Beta:Neck1
					{
						OFFSET	0.0000	4.3400	0.9269
						CHANNELS 3 Xrotation Yrotation Zrotation
						JOINT Beta:Head
						{
							OFFSET	0.0000	4.0266	0.8585
							CHANNELS 3 Xrotation Yrotation Zrotation
							End Site
							{
								OFFSET 0.0000 23.0297 0.1231
							}
						}
					}
				}
				JOINT Beta:LeftShoulder
				{
					OFFSET	6.1442	10.1870	-3.7932
					CHANNELS 3 Zrotation Xrotation Yrotation
					JOINT Beta:LeftArm
					{
						OFFSET	12.3191	-1.1130	-1.7935
						CHANNELS 3 Zrotation Xrotation Yrotation
						JOINT Beta:LeftForeArm
						{
							OFFSET	27.6870	0.0000	0.0000
							CHANNELS 3 Xrotation Zrotation Yrotation
							JOINT Beta:LeftHand
							{
								OFFSET	27.8738	0.0000	0.0000
								CHANNELS 3 Zrotation Yrotation Xrotation
								JOINT Beta:LeftHandThumb1
								{
									OFFSET	2.3785	-1.0029	2.6209
									CHANNELS 3 Zrotation Xrotation Yrotation
									JOINT Beta:LeftHandThumb2
									{
										OFFSET	3.3624	-1.0029	2.8398
										CHANNELS 3 Zrotation Xrotation Yrotation
										JOINT Beta:LeftHandThumb3
										{
											OFFSET	4.5018	-1.3445	2.1783
											CHANNELS 3 Zrotation Xrotation Yrotation
											End Site
											{
												OFFSET 2.6000 -1.0000 1.0000
											}
										}
									}
								}
								JOINT Beta:LeftHandMiddle1
								{
									OFFSET	10.4639	0.6148	0.4298
									CHANNELS 3 Zrotation Xrotation Yrotation
									JOINT Beta:LeftHandMiddle2
									{
										OFFSET	5.7921	0.0000	0.0000
										CHANNELS 3 Zrotation Xrotation Yrotation
										JOINT Beta:LeftHandMiddle3
										{
											OFFSET	3.7132	0.0000	0.0000
											CHANNELS 3 Zrotation Xrotation Yrotation
											End Site
											{
												OFFSET 2.3000 0.0000 0.0000
											}
										}
									}
								}
								JOINT Beta:LeftHandIndex1
								{
									OFFSET	10.3945	0.6148	2.7055
									CHANNELS 3 Zrotation Xrotation Yrotation
									JOINT Beta:LeftHandIndex2
									{
										OFFSET	5.5493	0.0000	0.0000
										CHANNELS 3 Zrotation Xrotation Yrotation
										JOINT Beta:LeftHandIndex3
										{
											OFFSET	3.3911	0.0000	0.0000
											CHANNELS 3 Zrotation Xrotation Yrotation
											End Site
											{
												OFFSET 2.5000 0.0000 0.0000
											}
										}
									}
								}
								JOINT Beta:LeftHandRing1
								{
									OFFSET	10.3252	0.3211	-1.8755
									CHANNELS 3 Zrotation Xrotation Yrotation
									JOINT Beta:LeftHandRing2
									{
										OFFSET	5.4452	0.0000	0.0000
										CHANNELS 3 Zrotation Xrotation Yrotation
										JOINT Beta:LeftHandRing3
										{
											OFFSET	3.7132	0.0000	0.0000
											CHANNELS 3 Zrotation Xrotation Yrotation
											End Site
											{
												OFFSET 2.0000 0.0000 0.0000
											}
										}
									}
								}
								JOINT Beta:LeftHandPinky1
								{
									OFFSET	10.0130	-0.0783	-3.9671
									CHANNELS 3 Zrotation Xrotation Yrotation
									JOINT Beta:LeftHandPinky2
									{
										OFFSET	3.6763	0.0000	0.0000
										CHANNELS 3 Zrotation Xrotation Yrotation
										JOINT Beta:LeftHandPinky3
										{
											OFFSET	2.8113	0.0000	0.0000
											CHANNELS 3 Zrotation Xrotation Yrotation
											End Site
											{
												OFFSET 2.9000 0.0000 0.0000
											}
										}
									}
								}
							}
						}
					}
				}
				JOINT Beta:RightShoulder
				{
					OFFSET	-6.1402	10.1870	-3.7932
					CHANNELS 3 Zrotation Xrotation Yrotation
					JOINT Beta:RightArm
					{
						OFFSET	-12.3231	-1.1130	-1.7935
						CHANNELS 3 Zrotation Xrotation Yrotation
						JOINT Beta:RightForeArm
						{
							OFFSET	-27.6870	0.0000	0.0000
							CHANNELS 3 Xrotation Zrotation Yrotation
							JOINT Beta:RightHand
							{
								OFFSET	-27.8738	0.0000	0.0000
								CHANNELS 3 Zrotation Yrotation Xrotation
								JOINT Beta:RightHandThumb1
								{
									OFFSET	-2.5178	-0.9367	2.5137
									CHANNELS 3 Zrotation Xrotation Yrotation
									JOINT Beta:RightHandThumb2
									{
										OFFSET	-3.2638	-1.0870	2.9669
										CHANNELS 3 Zrotation Xrotation Yrotation
										JOINT Beta:RightHandThumb3
										{
											OFFSET	-4.4165	-1.3703	2.1350
											CHANNELS 3 Zrotation Xrotation Yrotation
											End Site
											{
												OFFSET -2.6000 -1.0000 1.0000
											}
										}
									}
								}
								JOINT Beta:RightHandIndex1
								{
									OFFSET	-10.4665	0.4896	2.7120
									CHANNELS 3 Zrotation Xrotation Yrotation
									JOINT Beta:RightHandIndex2
									{
										OFFSET	-5.3768	0.0000	0.0000
										CHANNELS 3 Zrotation Xrotation Yrotation
										JOINT Beta:RightHandIndex3
										{
											OFFSET	-3.3855	0.0000	0.0000
											CHANNELS 3 Zrotation Xrotation Yrotation
											End Site
											{
												OFFSET -2.6000 0.0000 0.0000
											}
										}
									}
								}
								JOINT Beta:RightHandMiddle1
								{
									OFFSET	-10.7596	0.4896	0.4278
									CHANNELS 3 Zrotation Xrotation Yrotation
									JOINT Beta:RightHandMiddle2
									{
										OFFSET	-5.6168	0.0000	0.0000
										CHANNELS 3 Zrotation Xrotation Yrotation
										JOINT Beta:RightHandMiddle3
										{
											OFFSET	-3.7364	0.0000	0.0000
											CHANNELS 3 Zrotation Xrotation Yrotation
											End Site
											{
												OFFSET -2.3000 0.0000 0.0000
											}
										}
									}
								}
								JOINT Beta:RightHandRing1
								{
									OFFSET	-10.4702	0.3879	-1.9363
									CHANNELS 3 Zrotation Xrotation Yrotation
									JOINT Beta:RightHandRing2
									{
										OFFSET	-5.4013	0.0000	0.0000
										CHANNELS 3 Zrotation Xrotation Yrotation
										JOINT Beta:RightHandRing3
										{
											OFFSET	-3.3916	0.0000	0.0000
											CHANNELS 3 Zrotation Xrotation Yrotation
											End Site
											{
												OFFSET -2.2000 0.0000 0.0000
											}
										}
									}
								}
								JOINT Beta:RightHandPinky1
								{
									OFFSET	-9.9715	-0.1191	-3.9540
									CHANNELS 3 Zrotation Xrotation Yrotation
									JOINT Beta:RightHandPinky2
									{
										OFFSET	-3.6528	0.0000	0.0000
										CHANNELS 3 Zrotation Xrotation Yrotation
										JOINT Beta:RightHandPinky3
										{
											OFFSET	-2.7820	0.0000	0.0000
											CHANNELS 3 Zrotation Xrotation Yrotation
											End Site
											{
												OFFSET -2.9000 0.0000 0.0000
											}
										}
									}
								}
							}
						}
					}
				}
			}
		}
	}
	JOINT Beta:LeftUpLeg
	{
		OFFSET	9.6338	-3.2733	0.0000
		CHANNELS 3 Xrotation Yrotation Zrotation
		JOINT Beta:LeftLeg
		{
			OFFSET	0.0000	-41.7300	-1.7300
			CHANNELS 3 Xrotation Yrotation Zrotation
			JOINT Beta:LeftFoot
			{
				OFFSET	0.0126	-39.1900	-0.8477
				CHANNELS 3 Xrotation Yrotation Zrotation
				JOINT Beta:LeftToeBase
				{
					OFFSET	-0.1833	-12.1931	8.2823
					CHANNELS 3 Xrotation Yrotation Zrotation
					End Site
					{
						OFFSET 0.0000 0.0000 10.1681
					}
				}
			}
		}
	}
	JOINT Beta:RightUpLeg
	{
		OFFSET	-9.6338	-3.2733	0.0000
		CHANNELS 3 Xrotation Yrotation Zrotation
		JOINT Beta:RightLeg
		{
			OFFSET	0.0000	-41.7300	-1.7300
			CHANNELS 3 Xrotation Yrotation Zrotation
			JOINT Beta:RightFoot
			{
				OFFSET	0.0126	-39.1900	-0.8477
				CHANNELS 3 Xrotation Yrotation Zrotation
				JOINT Beta:RightToeBase
				{
					OFFSET	-0.1833	-12.1931	8.2823
					CHANNELS 3 Xrotation Yrotation Zrotation
					End Site
					{
						OFFSET 0.0032 0.0000 10.1681
					}
				}
			}
		}
	}
}
MOTION
Frames: 8
Frame Time: 0.0333333
-0.1640 94.3123 0.1324 2.5581 -2.3875 -2.0210 14.3190 1.0913 2.4946 -4.3440 0.8443 -0.9325 -4.3291 0.7720 -1.0301 -0.1009 -1.6899 2.6226 -0.0000 0.0000 -0.0000 -5.8402 -0.4607 -1.5401 -1.3412 2.3091 2.6542 -73.4384 6.8405 -5.7667 13.6634 -8.8589 -10.6499 8.4608 4.6194 5.6991 2.7008 0.6038 20.4827 0.6806 -1.8277 -4.3878 4.7145 -0.2646 4.6497 -24.6647 3.8111 -10.1219 -24.5390 0.5295 -2.4425 -24.4099 0.5247 -2.4288 -20.8371 4.3644 -10.0750 -22.0683 0.3779 -2.1722 -21.9511 0.4259 -2.1755 -29.5768 4.0319 -11.4909 -27.9481 0.6854 -2.7546 -27.7741 0.6715 -2.7464 -34.2269 4.2169 -13.1299 -31.2029 0.8429 -3.0536 -30.9913 0.8342 -3.0308 4.4010 3.4686 -0.0300 67.7832 23.6800 10.7335 8.4197 4.4504 19.9091 -8.6879 -4.6942 -14.8612 4.0743 3.9765 -29.0051 -0.2673 -1.3586 3.5552 -3.1361 -3.0403 4.2625 20.3115 2.4843 5.0223 19.8445 0.2244 1.5479 19.7085 0.2664 1.5562 22.5609 2.0642 6.1723 21.3833 0.3227 1.7076 21.2416 0.3100 1.6927 26.3770 2.3114 8.1028 24.0803 0.4059 1.9033 23.9003 0.3946 1.8912 30.3257 2.6300 10.4563 26.9004 0.5046 2.1105 26.6902 0.4971 2.0951 -29.3575 4.3094 5.5647 65.0551 1.6009 0.5185 -6.5542 0.6878 -7.5165 0.9686 0.0000 -0.0000 -9.5855 -4.7640 5.8936 29.6189 6.9570 0.9281 -14.6328 1.6971 -9.6572 0.8714 -0.0000 0.0000 
-0.0261 94.1344 3.7235 2.5858 -1.8081 -1.9005 13.4111 1.2501 1.6304 -4.0630 0.9314 -0.3969 -4.0581 0.8593 -0.5262 -0.4150 -1.2163 0.6323 -0.0000 0.0000 -0.0000 -5.9931 -0.5155 -1.1122 -2.3866 2.0980 4.7188 -73.3418 6.5730 -7.6447 16.0568 -9.6562 -6.9022 9.3970 3.0936 5.6001 1.4356 1.0805 18.6638 0.9383 -2.6774 -5.2620 4.7772 -0.0266 5.3352 -25.4516 3.6096 -9.1440 -24.0977 0.5095 -2.4038 -24.1642 0.5138 -2.4071 -22.2556 4.2848 -8.8698 -21.2381 0.3465 -2.0930 -21.7022 0.4156 -2.1521 -30.2816 3.8879 -10.3301 -27.6702 0.6729 -2.7309 -27.4681 0.6546 -2.7206 -34.4022 4.1297 -12.2555 -30.9232 0.8280 -3.0304 -30.6991 0.8184 -3.0065 3.0449 3.1725 -0.0906 68.3348 25.1644 10.3675 7.3331 3.8480 22.0651 -8.2488 -6.5622 -14.2218 4.0742 3.9765 -29.0051 -0.2672 -1.3586 3.5552 -3.3568 -2.5567 2.7712 20.6574 2.4980 4.5333 20.8852 0.2539 1.6273 22.1303 0.3401 1.7382 23.4894 2.0735 5.2327 22.5979 0.3639 1.7924 22.4485 0.3484 1.7808 27.0130 2.3057 6.3356 24.8296 0.4290 1.9544 23.9003 0.3946 1.8912 30.8374 2.4946 8.5769 26.9003 0.5045 2.1104 26.6902 0.4972 2.0951 -32.0279 4.8849 4.7910 56.5564 4.7116 0.7441 -9.7829 0.9136 -8.0806 2.8917 -2.3390 1.7455 -7.2552 -4.4970 5.8728 28.9598 6.9214 0.9004 -16.8895 1.8720 -9.7510 0.8714 -0.0000 0.0000 
0.1600 93.9053 7.3870 2.4071 -1.2749 -1.9402 12.6224 1.3603 0.8164 -3.8256 0.9063 0.1848 -3.8327 0.8557 0.0409 -0.8006 -0.4710 -0.3393 -0.0000 0.0000 -0.0000 -6.2044 0.1546 -1.5371 -3.4721 1.8716 6.8937 -73.2716 6.1704 -7.0277 18.4466 -9.5482 -7.2356 10.2889 3.3720 5.5900 0.1830 1.6382 16.7679 1.1865 -3.5812 -6.1650 4.8328 0.1955 5.9730 -26.3971 3.4050 -8.1456 -23.7198 0.4924 -2.3697 -24.0122 0.5070 -2.3938 -23.9321 4.2238 -7.6202 -20.4178 0.3166 -2.0144 -21.5503 0.4094 -2.1377 -31.0976 3.7380 -9.1635 -27.4494 0.6632 -2.7120 -27.2170 0.6433 -2.6985 -34.6440 4.0365 -11.3897 -30.6655 0.8145 -3.0089 -30.4274 0.8039 -2.9838 1.8565 2.9379 0.3464 68.6886 26.0967 10.1364 6.7504 3.0750 24.2557 -7.9677 -7.4596 -13.3013 4.0743 3.9765 -29.0051 -0.2672 -1.3586 3.5552 -3.5969 -1.9974 1.0658 21.0536 2.5132 3.9731 22.0771 0.2894 1.7176 24.9042 0.4290 1.9424 24.5506 2.0830 4.1551 23.9891 0.4070 1.8904 23.8308 0.3926 1.8843 27.7376 2.2928 4.3107 25.6880 0.4564 2.0125 23.9004 0.3946 1.8912 31.4093 2.3305 6.4242 26.9003 0.5045 2.1104 26.6902 0.4971 2.0952 -33.2570 5.7361 4.1053 46.2297 3.9128 0.6862 -10.7580 0.3857 -4.8362 5.4667 1.5477 -2.1856 -4.4193 -4.2093 5.9984 27.4478 7.1056 0.8208 -18.7252 2.0101 -9.7890 0.8715 -0.0000 0.0000 
0.4147 93.6131 11.1355 1.9639 -0.8481 -2.1517 12.1118 1.4048 0.0580 -3.6950 0.7194 0.8309 -3.7156 0.7273 0.6989 -1.1960 0.6325 -0.6494 -0.0000 0.0000 -0.0000 -6.4275 1.5387 -2.7684 -4.5610 1.6423 9.1024 -73.2788 5.7424 -5.9570 20.2317 -9.5202 -7.4455 11.5259 3.3173 5.5670 -0.9945 2.2536 14.8776 1.4013 -4.4742 -7.0515 4.8880 0.4266 6.6343 -27.2490 3.1974 -7.1570 -23.3102 0.4737 -2.3312 -23.8134 0.4981 -2.3762 -25.4669 4.1493 -6.3886 -19.5924 0.2876 -1.9348 -21.3498 0.4012 -2.1189 -31.8449 3.5848 -7.9994 -27.2001 0.6522 -2.6908 -26.9384 0.6308 -2.6739 -34.8476 3.9428 -10.5199 -30.3967 0.8004 -2.9864 -30.1455 0.7889 -2.9602 0.6559 2.7537 1.5241 68.9403 26.8430 9.7572 6.5396 2.0390 26.3695 -7.9231 -7.7211 -12.3982 4.0743 3.9766 -29.0050 -0.2672 -1.3586 3.5552 -3.8271 -1.4131 -0.6907 21.4621 2.5284 3.3949 23.3068 0.3280 1.8100 27.7659 0.5312 2.1489 25.6429 2.0915 3.0420 25.4239 0.4560 1.9969 25.2567 0.4409 1.9899 28.4804 2.2725 2.2210 26.5731 0.4880 2.0775 23.9003 0.3946 1.8912 31.9829 2.1521 4.2035 26.9004 0.5045 2.1104 26.6902 0.4971 2.0951 -33.1920 7.0574 3.6538 34.9155 -0.2455 0.4261 -8.6281 -0.7401 0.4995 6.1311 7.9711 -7.8132 -0.9407 -3.8670 6.2451 24.9247 7.5840 0.6498 -20.0591 2.0928 -9.7341 0.8714 0.0000 0.0000 
0.7491 93.2568 14.9661 1.3088 -0.6668 -2.4769 11.9770 1.4154 -0.6202 -3.6710 0.4698 1.4246 -3.7061 0.5583 1.3186 -1.0858 2.0927 -0.0576 -0.0000 0.0000 -0.0000 -7.1213 3.8917 -5.1640 -5.6194 1.4222 11.2687 -73.2076 5.3038 -4.6509 21.5482 -9.5547 -7.5626 12.9184 3.0841 5.5354 -2.0448 2.8916 13.0788 1.5654 -5.2884 -7.8761 4.9479 0.6915 7.3901 -27.7577 2.9863 -6.2093 -22.7740 0.4499 -2.2811 -23.4274 0.4813 -2.3421 -26.4617 4.0273 -5.2408 -18.7469 0.2592 -1.8529 -20.9552 0.3853 -2.0815 -32.3454 3.4307 -6.8470 -26.8368 0.6351 -2.6570 -26.5499 0.6131 -2.6397 -34.9089 3.8537 -9.6336 -30.0843 0.7842 -2.9602 -29.8227 0.7719 -2.9332 -0.5296 2.6368 3.4796 69.3969 27.7936 8.6999 6.5795 0.6392 28.3404 -7.9744 -8.5042 -11.8323 4.0742 3.9765 -29.0051 -0.2673 -1.3586 3.5552 -4.0268 -0.8586 -2.3367 21.8453 2.5423 2.8520 24.4607 0.3661 1.8959 30.4510 0.6368 2.3394 26.6657 2.0984 1.9961 26.7705 0.5037 2.0938 26.5949 0.4886 2.0881 29.1729 2.2473 0.2594 27.4037 0.5185 2.1377 23.9003 0.3946 1.8912 32.5060 1.9772 2.1198 26.9004 0.5046 2.1104 26.6902 0.4972 2.0952 -32.7646 9.2731 3.5362 24.8305 -3.1618 0.2652 -5.3030 -1.7459 3.2433 5.3168 9.4624 -9.0342 3.4704 -3.4200 6.4568 21.0363 8.3415 0.5098 -20.7199 2.1032 -9.5814 0.8714 -0.0000 0.0000 
1.1812 92.8404 18.9132 0.5736 -0.9704 -2.8495 12.5099 1.4199 -1.0740 -3.7363 0.2965 1.7289 -3.7839 0.4659 1.6476 -1.0084 3.5084 1.6523 -0.0000 0.0000 -0.0000 -7.7322 6.5993 -7.9036 -6.6154 1.2226 13.3171 -72.7856 4.8834 -3.4737 22.6411 -9.6199 -7.6222 14.2541 2.7751 5.4989 -2.9263 3.5075 11.4599 1.6678 -5.9538 -8.5938 5.0161 1.0156 8.3113 -27.6750 2.7716 -5.3342 -22.0159 0.4205 -2.2093 -22.7139 0.4524 -2.2779 -26.5186 3.8240 -4.2440 -17.8660 0.2307 -1.7671 -20.2206 0.3579 -2.0113 -32.4228 3.2782 -5.7156 -26.2735 0.6090 -2.6044 -25.9691 0.5863 -2.5862 -34.7249 3.7745 -8.7184 -29.6957 0.7642 -2.9275 -29.4284 0.7513 -2.8998 -0.9364 2.6859 5.2793 69.5554 28.6254 7.5344 7.2321 -1.2504 29.9944 -7.7424 -9.4639 -11.5413 4.0742 3.9766 -29.0051 -0.2673 -1.3586 3.5552 -4.1814 -0.3907 -3.7112 22.1655 2.5535 2.3981 25.4254 0.3992 1.9672 32.6956 0.7339 2.4942 27.5189 2.1034 1.1207 27.8962 0.5450 2.1730 27.7138 0.5299 2.1685 29.7484 2.2219 -1.3809 28.0983 0.5439 2.1860 23.9003 0.3946 1.8912 32.9316 1.8260 0.3777 26.9004 0.5045 2.1104 26.6902 0.4971 2.0952 -32.3524 12.0275 3.5129 17.9007 -2.0573 0.3718 -3.5789 -2.3134 2.9368 5.0039 4.1399 -4.7435 8.8459 -3.4842 6.3260 16.2166 10.0869 0.6399 -20.2150 2.0153 -9.6360 0.7664 -0.0511 -0.0130 
1.6928 92.4119 22.9884 -0.1271 -1.6767 -3.2417 13.4186 1.4683 -1.3790 -3.7484 0.2620 1.8339 -3.8028 0.4962 1.7631 -1.3279 4.7255 3.6437 -0.0000 0.0000 -0.0000 -7.8206 9.0927 -10.5164 -7.5192 1.0535 15.1725 -72.1255 4.5319 -2.6950 23.6257 -9.6942 -7.6476 15.3132 2.4895 5.4664 -3.6885 4.0998 9.9784 1.7107 -6.4619 -9.2186 5.1017 1.4649 9.5835 -26.6636 2.5331 -4.4526 -20.8623 0.3770 -2.0995 -21.4444 0.4041 -2.1594 -25.1504 3.4931 -3.3616 -16.8472 0.1996 -1.6673 -18.9019 0.3123 -1.8841 -31.8911 3.1368 -4.4918 -25.3431 0.5683 -2.5194 -25.0318 0.5450 -2.4995 -34.1663 3.7176 -7.6729 -29.1401 0.7361 -2.8805 -28.8753 0.7227 -2.8527 -0.8017 2.8217 6.3467 69.4577 29.5825 6.5688 8.1510 -3.0860 30.6904 -7.3365 -9.8937 -12.0739 4.0743 3.9766 -29.0051 -0.2672 -1.3586 3.5552 -4.2810 -0.0676 -4.6538 22.3852 2.5613 2.0865 26.0875 0.4226 2.0157 34.2359 0.8049 2.5976 28.1035 2.1065 0.5193 28.6689 0.5755 2.2266 28.4816 0.5603 2.2221 30.1413 2.2022 -2.5068 28.5749 0.5616 2.2188 23.9003 0.3946 1.8912 33.2175 1.7199 -0.8177 26.9004 0.5046 2.1104 26.6902 0.4971 2.0952 -31.9213 13.1126 3.3053 15.7608 -0.5654 0.4985 -1.9948 -2.4777 4.8410 4.4270 0.7184 -1.7424 12.8669 -5.1553 5.6837 14.8968 13.5510 1.0461 -18.8310 1.8243 -10.3334 0.2956 0.1632 -0.3189 
2.3254 92.0170 27.2679 -0.5972 -2.7906 -3.5900 14.4190 1.6014 -1.6275 -3.5804 0.4147 1.8352 -3.6328 0.6838 1.7507 -2.2156 5.4260 5.5683 -0.0000 0.0000 -0.0000 -7.1259 10.7982 -12.4870 -8.2029 0.9548 16.5076 -71.3920 4.3193 -1.5682 24.4172 -8.9274 -9.5619 15.0954 3.3362 5.5629 -4.0031 4.4694 9.1481 1.6759 -6.5983 -9.5315 5.1566 1.7862 10.4896 -25.6633 2.3825 -4.0985 -19.8575 0.3412 -2.0028 -20.2991 0.3624 -2.0494 -23.5358 3.1604 -3.0060 -16.1578 0.1795 -1.5995 -17.7484 0.2757 -1.7719 -31.0958 2.9450 -3.7926 -24.6181 0.5371 -2.4516 -24.3044 0.5138 -2.4314 -33.5380 3.6248 -6.9602 -28.7845 0.7183 -2.8503 -28.5188 0.7044 -2.8221 -0.3685 2.9896 6.5531 69.3047 30.5038 5.8132 9.3301 -4.6821 30.4182 -6.7292 -9.8641 -13.3042 4.0742 3.9765 -29.0051 -0.2672 -1.3586 3.5552 -4.3170 0.0527 -5.0038 22.4667 2.5632 1.9707 26.3333 0.4315 2.0337 34.8080 0.8314 2.6354 28.3204 2.1075 0.2959 28.9558 0.5868 2.2468 28.7668 0.5717 2.2424 30.2868 2.1944 -2.9249 28.7520 0.5684 2.2312 23.9003 0.3946 1.8912 33.3224 1.6799 -1.2617 26.9003 0.5046 2.1104 26.6902 0.4971 2.0951 -31.4303 12.6135 2.9408 17.8730 0.9514 0.5988 0.6093 -2.3192 9.7628 2.6535 -0.5621 -0.2136 15.2583 -7.6759 4.6698 17.7959 17.2884 1.3842 -17.2387 1.4361 -11.3676 -2.4463 1.3889 0.7619 
